<?xml version="1.0" standalone="no"?>
<!DOCTYPE svg PUBLIC "-//W3C//DTD SVG 20010904//EN"
 "http://www.w3.org/TR/2001/REC-SVG-20010904/DTD/svg10.dtd">
<svg version="1.0" xmlns="http://www.w3.org/2000/svg"
 width="76.000000pt" height="76.000000pt" viewBox="0 0 76.000000 76.000000"
 preserveAspectRatio="xMidYMid meet">
<metadata>
Created by potrace 1.11, written by Peter Selinger 2001-2013
</metadata>
<g transform="translate(0.000000,76.000000) scale(0.100000,-0.100000)"
fill="#000000" stroke="none">
<path d="M281 681 c-42 -11 -82 -40 -98 -72 -7 -14 -13 -62 -13 -113 0 -87 0
-88 -22 -82 -13 4 -38 10 -56 13 -31 5 -34 4 -30 -18 5 -37 138 -79 272 -86
113 -6 286 16 337 42 58 30 19 64 -47 42 -28 -10 -34 11 -34 121 0 74 -3 86
-24 107 -13 13 -41 28 -62 35 -52 15 -181 21 -223 11z"/>
<path d="M300 202 c-8 -4 -36 -20 -63 -36 -33 -20 -55 -26 -72 -22 -30 8 -34
36 -4 36 11 0 17 5 14 10 -9 14 -48 13 -63 -2 -19 -19 -14 -53 11 -76 47 -44
143 -55 213 -23 23 10 44 24 48 29 4 7 19 2 42 -13 67 -45 179 -44 234 2 31
26 39 60 18 81 -15 15 -54 16 -63 2 -3 -5 1 -10 9 -10 21 0 31 -21 15 -31 -19
-13 -57 -2 -99 26 -51 34 -85 40 -116 20 -24 -15 -28 -15 -59 -1 -36 17 -42
18 -65 8z"/>
</g>
</svg>
