<?xml version="1.0" encoding="utf-8"?>
<!-- Generator: Adobe Illustrator 16.0.0, SVG Export Plug-In . SVG Version: 6.00 Build 0)  -->
<!DOCTYPE svg PUBLIC "-//W3C//DTD SVG 1.1//EN" "http://www.w3.org/Graphics/SVG/1.1/DTD/svg11.dtd">
<svg version="1.1" id="Layer_1" xmlns="http://www.w3.org/2000/svg" xmlns:xlink="http://www.w3.org/1999/xlink" x="0px" y="0px"
	 width="64px" height="64px" viewBox="0 0 64 64" enable-background="new 0 0 64 64" xml:space="preserve">
<g>
	<path d="M32,2c16.403,0,29.749,13.346,29.749,29.75S48.403,61.498,32,61.498c-16.404,0-29.75-13.345-29.75-29.749S15.596,2,32,2
		 M32,0C14.465,0,0.25,14.215,0.25,31.75c0,17.536,14.215,31.749,31.75,31.749c17.534,0,31.749-14.213,31.749-31.749
		C63.749,14.215,49.534,0,32,0L32,0z"/>
</g>
<g>
	<circle fill="#FFFFFF" stroke="#000000" stroke-width="0.75" stroke-miterlimit="10" cx="22.187" cy="24.945" r="10.427"/>
	<circle cx="14.53" cy="24.11" r="0.907"/>
	<circle cx="26.814" cy="19.103" r="0.907"/>
	<circle cx="21.724" cy="26.168" r="1.225"/>
	<circle cx="17.314" cy="31.077" r="1.225"/>
	<circle cx="19.971" cy="19.89" r="1.693"/>
	<path fill="#FFFFFF" stroke="#000000" stroke-miterlimit="10" d="M39.011,48.643c0-1.256,0.714-2.334,1.75-2.886
		c-0.843-0.593-1.397-1.569-1.397-2.679c0-1.812,1.469-3.281,3.28-3.281c0.026,0,0.052,0.007,0.078,0.008
		c0-0.014-0.004-0.025-0.004-0.039c0-1.812,1.469-3.281,3.28-3.281c1.064,0,2.001,0.516,2.601,1.303
		c0.502-1.17,1.662-1.99,3.015-1.99c0.188,0,0.37,0.025,0.55,0.056c0.05-0.491,0.075-0.99,0.075-1.495
		c0-8.077-6.548-14.625-14.624-14.625c-8.077,0-14.625,6.548-14.625,14.625c0,8.076,6.548,14.623,14.625,14.623
		c0.48,0,0.955-0.026,1.423-0.072C39.03,48.819,39.011,48.733,39.011,48.643z"/>
	<circle cx="30.033" cy="28.466" r="2.313"/>
	<circle cx="39.364" cy="35.485" r="1.75"/>
	<circle cx="34.364" cy="43.61" r="1.75"/>
	<circle cx="31.053" cy="37.651" r="1.167"/>
	<circle cx="40.178" cy="24.11" r="1.167"/>
	<circle cx="47.166" cy="31.413" r="1.167"/>
</g>
</svg>
